<?xml version="1.0" encoding="UTF-8"?>
<svg xmlns="http://www.w3.org/2000/svg" xmlns:xlink="http://www.w3.org/1999/xlink" width="24px" height="24px"
     viewBox="0 0 24 24" version="1.1">
  <g id="surface27468">
    <path style=" stroke:none;fill-rule:nonzero;fill:#1abc9c;fill-opacity:1;"
          d="M 19 3 C 20.09375 3 21 3.90625 21 5 L 21 12.242188 C 20.414062 12.085938 19.800781 12 19.167969 12 C 19.113281 12 19.054688 12 19 12.003906 L 19 9 L 5 9 L 5 19 L 12.167969 19 C 12.167969 19.695312 12.269531 20.367188 12.457031 21 L 5 21 C 3.90625 21 3 20.09375 3 19 L 3 5 C 3 3.90625 3.90625 3 5 3 Z M 5 7 L 19 7 L 19 5 L 5 5 Z M 11 14 L 7.792969 17.207031 L 6.792969 16.207031 L 9 14 L 6.792969 11.792969 L 7.792969 10.792969 Z M 12 17 L 12 15.5 L 13.105469 15.5 C 12.832031 15.96875 12.613281 16.472656 12.457031 17 Z M 12 17 "/>
    <path style=" stroke:none;fill-rule:nonzero;fill:#1abc9c;fill-opacity:1;"
          d="M 23.089844 19.761719 C 23.140625 19.511719 23.167969 19.261719 23.167969 19 C 23.167969 18.738281 23.140625 18.488281 23.089844 18.238281 L 23.898438 17.640625 C 24 17.5625 24.03125 17.421875 23.964844 17.3125 L 23.03125 15.6875 C 22.964844 15.578125 22.828125 15.53125 22.710938 15.582031 L 21.773438 15.988281 C 21.394531 15.660156 20.957031 15.402344 20.472656 15.234375 L 20.355469 14.222656 C 20.339844 14.097656 20.234375 14 20.105469 14 L 18.230469 14 C 18.101562 14 17.996094 14.097656 17.980469 14.222656 L 17.863281 15.234375 C 17.378906 15.402344 16.941406 15.660156 16.5625 15.988281 L 15.625 15.582031 C 15.507812 15.53125 15.371094 15.578125 15.304688 15.6875 L 14.371094 17.3125 C 14.304688 17.421875 14.335938 17.5625 14.4375 17.640625 L 15.246094 18.238281 C 15.195312 18.488281 15.167969 18.738281 15.167969 19 C 15.167969 19.261719 15.195312 19.511719 15.246094 19.761719 L 14.4375 20.359375 C 14.335938 20.4375 14.304688 20.578125 14.371094 20.6875 L 15.304688 22.308594 C 15.371094 22.421875 15.507812 22.46875 15.625 22.414062 L 16.5625 22.011719 C 16.941406 22.339844 17.378906 22.597656 17.863281 22.765625 L 17.980469 23.777344 C 17.996094 23.902344 18.101562 24 18.230469 24 L 20.105469 24 C 20.234375 24 20.339844 23.902344 20.355469 23.777344 L 20.472656 22.765625 C 20.957031 22.597656 21.394531 22.339844 21.773438 22.011719 L 22.710938 22.417969 C 22.828125 22.46875 22.964844 22.421875 23.03125 22.3125 L 23.964844 20.691406 C 24.03125 20.578125 24 20.4375 23.898438 20.359375 Z M 19.167969 21 C 18.0625 21 17.167969 20.105469 17.167969 19 C 17.167969 17.894531 18.0625 17 19.167969 17 C 20.273438 17 21.167969 17.894531 21.167969 19 C 21.167969 20.105469 20.273438 21 19.167969 21 Z M 19.167969 21 "/>
  </g>
</svg>
