<?xml version="1.0"?>
<svg xmlns="http://www.w3.org/2000/svg" xmlns:xlink="http://www.w3.org/1999/xlink" version="1.1" viewBox="0 0 224 224" width="24px" height="24px"><g fill="none" fill-rule="nonzero" stroke="none" stroke-width="1" stroke-linecap="butt" stroke-linejoin="miter" stroke-miterlimit="10" stroke-dasharray="" stroke-dashoffset="0" font-family="none" font-weight="none" font-size="none" text-anchor="none" style="mix-blend-mode: normal"><path d="M0,224v-224h224v224z" fill="none"/><g fill="#1abc9c"><path d="M56,28c-15.35342,0 -28,12.64658 -28,28c0,12.06948 7.86492,22.35465 18.66667,26.25v39.08333h18.66667v-39.08333c10.80175,-3.89535 18.66667,-14.18052 18.66667,-26.25c0,-15.35342 -12.64658,-28 -28,-28zM168,28c-11.85151,0.01663 -22.40888,7.49294 -26.35938,18.66667h-38.97396v18.66667h38.95573c3.95273,11.18002 14.51941,18.65775 26.37761,18.66667c15.46397,0 28,-12.53603 28,-28c0,-15.46397 -12.53603,-28 -28,-28zM56,46.66667c5.26521,0 9.33333,4.06813 9.33333,9.33333c0,5.26521 -4.06813,9.33333 -9.33333,9.33333c-5.26521,0 -9.33333,-4.06813 -9.33333,-9.33333c0,-5.26521 4.06813,-9.33333 9.33333,-9.33333zM158.66667,102.66667v37.33333l-21.40104,21.40104c-3.64,3.64 -3.64,9.55791 0,13.19791l24.13542,24.13542c3.64,3.64933 9.54858,3.64933 13.19791,0l24.13542,-24.13542c3.64933,-3.64 3.64933,-9.54858 0,-13.19791l-21.40104,-21.40104v-37.33333zM37.33333,140c-5.152,0 -9.33333,4.18133 -9.33333,9.33333v37.33333c0,5.152 4.18133,9.33333 9.33333,9.33333h37.33333c5.152,0 9.33333,-4.18133 9.33333,-9.33333v-37.33333c0,-5.152 -4.18133,-9.33333 -9.33333,-9.33333z"/></g></g></svg>
