<?xml version="1.0"?>
<svg xmlns="http://www.w3.org/2000/svg" version="1.1" viewBox="0 0 224 224" width="24px" height="24px">
  <g fill="none" fill-rule="nonzero" stroke="none" stroke-width="1" stroke-linecap="butt" stroke-linejoin="miter"
     stroke-miterlimit="10" stroke-dasharray="" stroke-dashoffset="0" font-family="none" font-weight="none"
     font-size="none" text-anchor="none" style="mix-blend-mode: normal">
    <path d="M0,224v-224h224v224z" fill="none"/>
    <g fill="#1abc9c">
      <path
          d="M102.66667,0v19.19531c-34.20913,3.40655 -62.96597,25.24165 -76.17969,55.47135h20.90885c11.43575,-19.73989 31.63167,-33.73229 55.27083,-36.69531v18.02865l18.06511,-18.0651c0.1976,0.02361 0.40436,0.01181 0.60156,0.03646v-0.63802l9.33333,-9.33333zM149.33333,26.48698v20.90885c19.73989,11.43575 33.73229,31.63167 36.69532,55.27083h-18.02865l18.06511,18.06511c-0.0236,0.1976 -0.01181,0.40436 -0.03646,0.60156h0.63802l9.33333,9.33333l28,-28h-19.19532c-3.40655,-34.20913 -25.24165,-62.96597 -55.47135,-76.17969zM28,93.33333l-28,28h19.19531c3.40655,34.20913 25.24165,62.96597 55.47135,76.17968v-20.90885c-19.73989,-11.43575 -33.73229,-31.63167 -36.69531,-55.27083h18.02865l-18.0651,-18.06511c0.02361,-0.1976 0.01181,-0.40436 0.03646,-0.60156h-0.63802zM176.60417,149.33333c-11.43575,19.73989 -31.63167,33.73229 -55.27083,36.69532v-18.02865l-18.06511,18.06511c-0.1976,-0.0236 -0.40436,-0.01181 -0.60156,-0.03646v0.63802l-9.33333,9.33333l28,28v-19.19532c34.20913,-3.40655 62.96597,-25.24165 76.17968,-55.47135z"/>
    </g>
  </g>
</svg>
