<?xml version="1.0" encoding="UTF-8"?>
<svg xmlns="http://www.w3.org/2000/svg" xmlns:xlink="http://www.w3.org/1999/xlink" width="24pt" height="24pt"
     viewBox="0 0 24 24" version="1.1">
  <g id="surface1865">
    <path style=" stroke:none;fill-rule:nonzero;fill:rgb(10.196078%,73.72549%,61.176471%);fill-opacity:1;"
          d="M 5 3 C 3.90625 3 3 3.90625 3 5 L 3 11 C 3 12.09375 3.90625 13 5 13 L 8 13 L 8 19 C 8 20.09375 8.90625 21 10 21 L 19 21 C 20.09375 21 21 20.09375 21 19 L 21 13 C 21 11.90625 20.09375 11 19 11 L 16 11 L 16 5 C 16 3.90625 15.09375 3 14 3 Z M 21 3 L 18 6 L 21 9 Z M 5 5 L 14 5 L 14 11 L 5 11 L 5 8 L 12 8 L 12 6 L 5 6 Z M 10 13 L 19 13 L 19 19 L 10 19 L 10 16 L 17 16 L 17 14 L 10 14 Z M 3 15 L 3 21 L 6 18 Z M 3 15 "/>
  </g>
</svg>
