<?xml version="1.0"?>
<svg xmlns="http://www.w3.org/2000/svg" xmlns:xlink="http://www.w3.org/1999/xlink" version="1.1" viewBox="0 0 192 192" width="24px" height="24px"><g fill="none" fill-rule="nonzero" stroke="none" stroke-width="1" stroke-linecap="butt" stroke-linejoin="miter" stroke-miterlimit="10" stroke-dasharray="" stroke-dashoffset="0" font-family="none" font-weight="none" font-size="none" text-anchor="none" style="mix-blend-mode: normal"><path d="M0,192v-192h192v192z" fill="none"/><g fill="#1abc9c"><path d="M48,16c-8.8,0 -16,7.2 -16,16v128c0,8.8 7.2,16 16,16h96c8.8,0 16,-7.2 16,-16v-128c0,-8.84 -7.16,-16 -16,-16zM48,32h96v128h-96zM84,40c-6.62742,0 -12,5.37258 -12,12c0,6.62742 5.37258,12 12,12c6.62742,0 12,-5.37258 12,-12c0,-6.62742 -5.37258,-12 -12,-12zM84,72c-6.672,0 -20,3.352 -20,10v6h40v-6c0,-6.648 -13.328,-10 -20,-10zM64,104v16h64v-16zM64,128v16h64v-16z"/></g></g></svg>
